<svg width="161" height="49" viewBox="0 0 161 49" fill="none" xmlns="http://www.w3.org/2000/svg">
<rect width="161" height="48.0764" rx="7" fill="white"/>
<path d="M105.755 22.7281V25.44H104.07V27.2184H105.755V33.2612C105.755 35.3246 106.68 36.1499 109.007 36.1499C109.416 36.1499 109.806 36.1008 110.147 36.0418V34.2831C109.854 34.3125 109.669 34.3322 109.348 34.3322C108.306 34.3322 107.848 33.8409 107.848 32.7208V27.2184H110.147V25.44H107.848V22.7281H105.755Z" fill="#022652"/>
<path d="M116.076 36.2973C119.173 36.2973 121.072 34.2045 121.072 30.736C121.072 27.2872 119.163 25.1845 116.076 25.1845C112.979 25.1845 111.07 27.2872 111.07 30.736C111.07 34.2045 112.969 36.2973 116.076 36.2973ZM116.076 34.4206C114.255 34.4206 113.232 33.0745 113.232 30.736C113.232 28.4172 114.255 27.0612 116.076 27.0612C117.887 27.0612 118.919 28.4172 118.919 30.736C118.919 33.0647 117.887 34.4206 116.076 34.4206Z" fill="#022652"/>
<path d="M122.696 36.091H124.79V29.7731C124.79 28.2698 125.91 27.2577 127.498 27.2577C127.868 27.2577 128.491 27.3265 128.666 27.3855V25.3024C128.442 25.2435 128.043 25.214 127.731 25.214C126.348 25.214 125.17 25.9804 124.868 27.0317H124.712V25.3909H122.696V36.091Z" fill="#022652"/>
<path d="M133.865 26.9826C135.413 26.9826 136.426 28.0733 136.475 29.7534H131.119C131.236 28.0831 132.317 26.9826 133.865 26.9826ZM136.465 33.2022C136.076 34.0374 135.209 34.4992 133.943 34.4992C132.268 34.4992 131.187 33.3103 131.119 31.4336V31.3157H138.608V30.5788C138.608 27.2184 136.826 25.1845 133.875 25.1845C130.885 25.1845 128.986 27.356 128.986 30.7753C128.986 34.1946 130.846 36.2973 133.884 36.2973C136.309 36.2973 138.004 35.1182 138.481 33.2022H136.465Z" fill="#022652"/>
<path d="M92.0238 32.1396C92.1853 34.7671 94.3555 36.4474 97.5855 36.4474C101.038 36.4474 103.198 34.6856 103.198 31.8748C103.198 29.6649 101.966 28.4428 98.9784 27.7401L97.3735 27.3429C95.4759 26.8948 94.7088 26.294 94.7088 25.245C94.7088 23.9211 95.8998 23.0555 97.6864 23.0555C99.3821 23.0555 100.553 23.9008 100.765 25.2552H102.965C102.834 22.7805 100.674 21.0391 97.7167 21.0391C94.5372 21.0391 92.4175 22.7805 92.4175 25.3978C92.4175 27.5568 93.6186 28.84 96.2531 29.4612L98.1305 29.9195C100.058 30.3778 100.906 31.0499 100.906 32.1701C100.906 33.4737 99.5739 34.4208 97.7571 34.4208C95.809 34.4208 94.4564 33.5348 94.2646 32.1396H92.0238Z" fill="#022652"/>
<path d="M70.3344 25.214C68.8931 25.214 67.6465 25.9411 67.0038 27.1595H66.848V25.3909H64.8321V39.6479H66.9259V34.4697H67.0915C67.6465 35.5997 68.8444 36.2678 70.3539 36.2678C73.032 36.2678 74.7362 34.1357 74.7362 30.736C74.7362 27.3363 73.032 25.214 70.3344 25.214ZM69.7403 34.3715C67.9874 34.3715 66.8869 32.9763 66.8869 30.7458C66.8869 28.5056 67.9874 27.1104 69.7501 27.1104C71.5225 27.1104 72.584 28.4761 72.584 30.736C72.584 33.0057 71.5225 34.3715 69.7403 34.3715Z" fill="#022652"/>
<path d="M82.0627 25.214C80.6214 25.214 79.3749 25.9411 78.7321 27.1595H78.5763V25.3909H76.5604V39.6479H78.6542V34.4697H78.8198C79.3749 35.5997 80.5727 36.2678 82.0822 36.2678C84.7603 36.2678 86.4645 34.1357 86.4645 30.736C86.4645 27.3363 84.7603 25.214 82.0627 25.214ZM81.4686 34.3715C79.7157 34.3715 78.6152 32.9763 78.6152 30.7458C78.6152 28.5056 79.7157 27.1104 81.4784 27.1104C83.2508 27.1104 84.3123 28.4761 84.3123 30.736C84.3123 33.0057 83.2508 34.3715 81.4686 34.3715Z" fill="#022652"/>
<path d="M61.0755 36.091H63.4778L58.219 21.3955H55.7864L50.5276 36.091H52.8491L54.1916 32.1905H59.7431L61.0755 36.091ZM56.8866 24.0637H57.0582L59.1678 30.2759H54.7669L56.8866 24.0637Z" fill="#022652"/>
<path d="M51.9336 10.3117V17.4009H54.4705C56.5643 17.4009 57.7767 16.099 57.7767 13.8342C57.7767 11.6038 56.5545 10.3117 54.4705 10.3117H51.9336ZM53.0243 11.3139H54.3487C55.8047 11.3139 56.6665 12.2473 56.6665 13.8489C56.6665 15.4751 55.8193 16.3987 54.3487 16.3987H53.0243V11.3139Z" fill="#022652"/>
<path d="M61.49 17.5041C63.0384 17.5041 63.9879 16.4576 63.9879 14.7234C63.9879 12.999 63.0336 11.9477 61.49 11.9477C59.9416 11.9477 58.9872 12.999 58.9872 14.7234C58.9872 16.4576 59.9367 17.5041 61.49 17.5041ZM61.49 16.5657C60.5795 16.5657 60.0682 15.8927 60.0682 14.7234C60.0682 13.564 60.5795 12.886 61.49 12.886C62.3957 12.886 62.9118 13.564 62.9118 14.7234C62.9118 15.8877 62.3957 16.5657 61.49 16.5657Z" fill="#022652"/>
<path d="M72.0738 12.0508H71.0269L70.0823 16.1334H69.9995L68.9088 12.0508H67.9058L66.815 16.1334H66.7371L65.7876 12.0508H64.7261L66.1869 17.4009H67.263L68.3537 13.4608H68.4365L69.5321 17.4009H70.6179L72.0738 12.0508Z" fill="#022652"/>
<path d="M73.2795 17.4009H74.3264V14.2714C74.3264 13.4362 74.8182 12.9155 75.5924 12.9155C76.3666 12.9155 76.7366 13.3429 76.7366 14.2026V17.4009H77.7835V13.9374C77.7835 12.6649 77.1311 11.9477 75.9478 11.9477C75.1493 11.9477 74.6234 12.3063 74.3653 12.9008H74.2874V12.0508H73.2795V17.4009Z" fill="#022652"/>
<path d="M79.4323 17.4009H80.4792V9.96289H79.4323V17.4009Z" fill="#022652"/>
<path d="M84.4165 17.5041C85.9649 17.5041 86.9144 16.4576 86.9144 14.7234C86.9144 12.999 85.96 11.9477 84.4165 11.9477C82.868 11.9477 81.9137 12.999 81.9137 14.7234C81.9137 16.4576 82.8632 17.5041 84.4165 17.5041ZM84.4165 16.5657C83.5059 16.5657 82.9946 15.8927 82.9946 14.7234C82.9946 13.564 83.5059 12.886 84.4165 12.886C85.3221 12.886 85.8383 13.564 85.8383 14.7234C85.8383 15.8877 85.3221 16.5657 84.4165 16.5657Z" fill="#022652"/>
<path d="M90.0336 16.6001C89.4639 16.6001 89.05 16.3201 89.05 15.8386C89.05 15.367 89.3812 15.1164 90.1115 15.0673L91.4068 14.9838V15.4309C91.4068 16.0941 90.8225 16.6001 90.0336 16.6001ZM89.7658 17.4893C90.4621 17.4893 91.0416 17.1847 91.3581 16.6492H91.4408V17.4009H92.4488V13.7458C92.4488 12.6158 91.6989 11.9477 90.3696 11.9477C89.1669 11.9477 88.3099 12.5372 88.2028 13.4559H89.2156C89.3325 13.0776 89.7366 12.8615 90.3209 12.8615C91.0367 12.8615 91.4068 13.1808 91.4068 13.7458V14.2076L89.9703 14.2911C88.7092 14.3697 87.9983 14.9248 87.9983 15.8877C87.9983 16.8654 88.7433 17.4893 89.7658 17.4893Z" fill="#022652"/>
<path d="M96.0014 17.4893C96.7318 17.4893 97.3502 17.1405 97.6667 16.5559H97.7495V17.4009H98.7525V9.96289H97.7056V12.9008H97.6277C97.3405 12.3112 96.7269 11.9624 96.0014 11.9624C94.6624 11.9624 93.8005 13.0334 93.8005 14.7234C93.8005 16.4183 94.6526 17.4893 96.0014 17.4893ZM96.2984 12.9106C97.1749 12.9106 97.7251 13.6131 97.7251 14.7283C97.7251 15.8484 97.1798 16.5411 96.2984 16.5411C95.4122 16.5411 94.8815 15.8583 94.8815 14.7234C94.8815 13.5984 95.4171 12.9106 96.2984 12.9106Z" fill="#022652"/>
<path d="M105.541 17.5041C107.09 17.5041 108.039 16.4576 108.039 14.7234C108.039 12.999 107.085 11.9477 105.541 11.9477C103.993 11.9477 103.038 12.999 103.038 14.7234C103.038 16.4576 103.988 17.5041 105.541 17.5041ZM105.541 16.5657C104.631 16.5657 104.119 15.8927 104.119 14.7234C104.119 13.564 104.631 12.886 105.541 12.886C106.447 12.886 106.963 13.564 106.963 14.7234C106.963 15.8877 106.447 16.5657 105.541 16.5657Z" fill="#022652"/>
<path d="M109.425 17.4009H110.472V14.2714C110.472 13.4362 110.964 12.9155 111.738 12.9155C112.512 12.9155 112.882 13.3429 112.882 14.2026V17.4009H113.929V13.9374C113.929 12.6649 113.277 11.9477 112.093 11.9477C111.295 11.9477 110.769 12.3063 110.511 12.9008H110.433V12.0508H109.425V17.4009Z" fill="#022652"/>
<path d="M118.751 10.7195V12.0754H117.908V12.9646H118.751V15.986C118.751 17.0177 119.213 17.4304 120.377 17.4304C120.581 17.4304 120.776 17.4058 120.947 17.3763V16.4969C120.801 16.5117 120.708 16.5215 120.547 16.5215C120.026 16.5215 119.797 16.2759 119.797 15.7158V12.9646H120.947V12.0754H119.797V10.7195H118.751Z" fill="#022652"/>
<path d="M122.352 17.4009H123.399V14.2763C123.399 13.4657 123.876 12.9204 124.733 12.9204C125.473 12.9204 125.868 13.3527 125.868 14.2076V17.4009H126.914V13.9472C126.914 12.6748 126.218 11.9526 125.088 11.9526C124.29 11.9526 123.73 12.3112 123.472 12.9106H123.389V9.96289H122.352V17.4009Z" fill="#022652"/>
<path d="M130.691 12.8467C131.465 12.8467 131.972 13.392 131.996 14.2321H129.318C129.376 13.3969 129.917 12.8467 130.691 12.8467ZM131.991 15.9565C131.796 16.3741 131.363 16.605 130.73 16.605C129.892 16.605 129.352 16.0106 129.318 15.0722V15.0133H133.062V14.6448C133.062 12.9646 132.171 11.9477 130.696 11.9477C129.201 11.9477 128.252 13.0334 128.252 14.7431C128.252 16.4527 129.182 17.5041 130.701 17.5041C131.913 17.5041 132.76 16.9145 132.999 15.9565H131.991Z" fill="#022652"/>
<path d="M39.1667 24.0299C39.1921 22.0401 40.2512 20.1573 41.9314 19.1151C40.8715 17.5878 39.0961 16.6194 37.249 16.5611C35.2789 16.3525 33.369 17.7505 32.365 17.7505C31.3417 17.7505 29.796 16.5818 28.1315 16.6164C25.962 16.6871 23.9394 17.9316 22.8839 19.8453C20.6149 23.8089 22.3073 29.6339 24.4808 32.8377C25.5683 34.4065 26.8392 36.1589 28.5021 36.0968C30.1295 36.0287 30.7372 35.0498 32.7015 35.0498C34.6476 35.0498 35.2178 36.0968 36.9145 36.0573C38.6607 36.0287 39.7609 34.4815 40.8102 32.8978C41.5915 31.78 42.1927 30.5445 42.5916 29.2372C40.5395 28.3615 39.1691 26.2779 39.1667 24.0299Z" fill="#022652"/>
<path d="M35.9619 14.4541C36.914 13.3009 37.383 11.8187 37.2695 10.3223C35.8149 10.4764 34.4713 11.1778 33.5063 12.2867C32.5627 13.3702 32.0717 14.8263 32.1645 16.2656C33.6196 16.2807 35.0501 15.5983 35.9619 14.4541Z" fill="#022652"/>
</svg>
