<svg width="161" height="49" viewBox="0 0 161 49" fill="none" xmlns="http://www.w3.org/2000/svg">
<rect width="161" height="48.0764" rx="5" fill="white"/>
<path d="M127.53 36.0578H129.755V21.032H127.53V36.0578ZM147.574 26.445L145.023 32.9592H144.947L142.299 26.445H139.902L143.873 35.5494L141.608 40.6143H143.929L150.048 26.445H147.574ZM134.953 34.3513C134.225 34.3513 133.208 33.9836 133.208 33.0752C133.208 31.9155 134.474 31.4709 135.567 31.4709C136.545 31.4709 137.006 31.6831 137.6 31.9733C137.427 33.3653 136.238 34.3513 134.953 34.3513ZM135.222 26.1162C133.611 26.1162 131.942 26.8317 131.252 28.4168L133.227 29.2478C133.649 28.4168 134.435 28.1464 135.26 28.1464C136.411 28.1464 137.581 28.8417 137.6 30.0793V30.2337C137.197 30.0018 136.334 29.6539 135.279 29.6539C133.149 29.6539 130.982 30.8328 130.982 33.0366C130.982 35.047 132.728 36.3424 134.684 36.3424C136.18 36.3424 137.006 35.6658 137.523 34.8729H137.6V36.0334H139.749V30.2722C139.749 27.6046 137.772 26.1162 135.222 26.1162ZM121.469 28.274H118.304V23.1237H121.469C123.133 23.1237 124.077 24.5116 124.077 25.6988C124.077 26.8632 123.133 28.274 121.469 28.274ZM121.412 21.032H116.08V36.0578H118.304V30.3652H121.412C123.878 30.3652 126.303 28.5661 126.303 25.6988C126.303 22.8321 123.878 21.032 121.412 21.032ZM92.3348 34.354C90.7974 34.354 89.5107 33.0563 89.5107 31.2756C89.5107 29.4741 90.7974 28.1581 92.3348 28.1581C93.8526 28.1581 95.0438 29.4741 95.0438 31.2756C95.0438 33.0563 93.8526 34.354 92.3348 34.354ZM94.89 27.2863H94.8131C94.3138 26.6862 93.3527 26.144 92.1429 26.144C89.6063 26.144 87.2817 28.3905 87.2817 31.2756C87.2817 34.1409 89.6063 36.3677 92.1429 36.3677C93.3527 36.3677 94.3138 35.8254 94.8131 35.2062H94.89V35.9414C94.89 37.8978 93.8526 38.9429 92.1811 38.9429C90.8175 38.9429 89.972 37.9555 89.6258 37.1231L87.6856 37.9363C88.2423 39.2913 89.7213 40.957 92.1811 40.957C94.7945 40.957 97.004 39.4077 97.004 35.6315V26.4539H94.89V27.2863ZM98.5414 36.0578H100.769V21.032H98.5414V36.0578ZM104.055 31.1009C103.998 29.1257 105.574 28.1191 106.706 28.1191C107.591 28.1191 108.339 28.5647 108.59 29.2032L104.055 31.1009ZM110.971 29.3966C110.549 28.2548 109.262 26.144 106.63 26.144C104.016 26.144 101.845 28.2159 101.845 31.2559C101.845 34.1217 103.998 36.3677 106.879 36.3677C109.203 36.3677 110.549 34.9353 111.106 34.1023L109.377 32.9403C108.801 33.7925 108.013 34.354 106.879 34.354C105.746 34.354 104.939 33.8311 104.421 32.8048L111.202 29.9779L110.971 29.3966ZM56.9377 27.7125V29.8811H62.0867C61.933 31.1009 61.5295 31.9915 60.9146 32.6112C60.1651 33.3662 58.993 34.1991 56.9377 34.1991C53.7674 34.1991 51.2891 31.6239 51.2891 28.429C51.2891 25.234 53.7674 22.6585 56.9377 22.6585C58.6477 22.6585 59.8963 23.3364 60.8186 24.2077L62.3369 22.6777C61.0493 21.4387 59.3396 20.4899 56.9377 20.4899C52.5949 20.4899 48.9445 24.0528 48.9445 28.429C48.9445 32.8048 52.5949 36.3677 56.9377 36.3677C59.2814 36.3677 61.0493 35.5931 62.4324 34.1409C63.8543 32.708 64.2963 30.6943 64.2963 29.0675C64.2963 28.5647 64.2576 28.0999 64.1808 27.7125H56.9377ZM70.1503 34.354C68.6129 34.354 67.2871 33.076 67.2871 31.2559C67.2871 29.4163 68.6129 28.1581 70.1503 28.1581C71.6871 28.1581 73.0129 29.4163 73.0129 31.2559C73.0129 33.076 71.6871 34.354 70.1503 34.354ZM70.1503 26.144C67.3444 26.144 65.0584 28.2933 65.0584 31.2559C65.0584 34.1991 67.3444 36.3677 70.1503 36.3677C72.9552 36.3677 75.2416 34.1991 75.2416 31.2559C75.2416 28.2933 72.9552 26.144 70.1503 26.144ZM81.2567 34.354C79.7204 34.354 78.3941 33.076 78.3941 31.2559C78.3941 29.4163 79.7204 28.1581 81.2567 28.1581C82.7941 28.1581 84.1194 29.4163 84.1194 31.2559C84.1194 33.076 82.7941 34.354 81.2567 34.354ZM81.2567 26.144C78.4518 26.144 76.1659 28.2933 76.1659 31.2559C76.1659 34.1991 78.4518 36.3677 81.2567 36.3677C84.0626 36.3677 86.3486 34.1991 86.3486 31.2559C86.3486 28.2933 84.0626 26.144 81.2567 26.144Z" fill="#022652"/>
<path d="M53.0435 15.9062C51.9743 15.9062 51.0546 15.5271 50.3131 14.7799C49.5713 14.0323 49.1956 13.0961 49.1956 12.0075C49.1956 10.919 49.5715 9.9845 50.3131 9.23517C51.0546 8.48788 51.9743 8.10885 53.0435 8.10885C53.5882 8.10885 54.0966 8.20367 54.5825 8.40111C55.0685 8.59858 55.4661 8.87269 55.7793 9.23142L55.8531 9.31616L55.019 10.1566L54.9356 10.0533C54.728 9.79613 54.4639 9.59636 54.1292 9.45114C53.7958 9.30629 53.4306 9.2394 53.0435 9.2394C52.2904 9.2394 51.6656 9.49714 51.1438 10.0211C51.1436 10.0212 51.1434 10.0212 51.1433 10.0214C50.6333 10.5559 50.377 11.2067 50.377 12.0076C50.377 12.809 50.6337 13.46 51.1442 13.9947C51.666 14.5184 52.2908 14.7776 53.0435 14.7776C53.7329 14.7776 54.3031 14.5836 54.7514 14.1996H54.7516C55.1689 13.8423 55.4193 13.3593 55.5079 12.7437H52.9243V11.6357H56.6246L56.6404 11.7371C56.6707 11.9319 56.6921 12.1199 56.6921 12.3005C56.6921 13.3344 56.3794 14.1783 55.7658 14.7992C55.0731 15.5392 54.1622 15.9062 53.0435 15.9062L53.0435 15.9062ZM85.1741 15.9062C84.1033 15.9062 83.1943 15.5269 82.4624 14.7799C82.4623 14.7798 82.4622 14.7798 82.4621 14.7797C82.462 14.7796 82.462 14.7796 82.4619 14.7794C81.7289 14.0405 81.3653 13.1041 81.3653 12.0075C81.3653 10.9109 81.7289 9.97456 82.4619 9.23563C82.462 9.23555 82.462 9.23551 82.4621 9.23539L82.4624 9.23515C83.1944 8.48805 84.1033 8.10883 85.1741 8.10883C86.2429 8.10883 87.1521 8.48814 87.884 9.24642C88.6172 9.98523 88.9811 10.9198 88.9811 12.0075C88.9811 13.1041 88.6174 14.0405 87.8845 14.7794L87.8842 14.7797C87.1518 15.5272 86.2342 15.9062 85.1741 15.9062L85.1741 15.9062ZM57.751 15.7447V8.27036H57.8703H62.1804V9.40091H58.9119V11.4535H61.8599V12.5616H58.9119V14.6161H62.1804V15.7447H57.751ZM64.8912 15.7447V9.40091H62.8861V8.27036H68.0572V9.40091H67.9379H66.0521V15.7447H64.8912ZM71.3619 15.7447V8.27036H72.5229V8.39055V15.7447H71.3619ZM75.4452 15.7447V9.40091H73.4401V8.27036H78.6111V9.40091H78.4919H76.6061V15.7447H75.4452ZM90.0116 15.7447V8.27036H91.3206L94.6522 13.6456L94.6235 12.6252V8.27036H95.7845V15.7447H94.6357L91.1438 10.0979L91.1725 11.1176V11.1193V15.7447H90.0116ZM85.1741 14.7776C85.9272 14.7776 86.542 14.5187 87.0431 13.9956L87.0438 13.9947L87.0446 13.9939C87.5529 13.4816 87.8016 12.822 87.8016 12.0075C87.8016 11.195 87.5527 10.5332 87.0446 10.0211L87.0438 10.0204L87.0431 10.0196C86.5421 9.49664 85.9274 9.23933 85.1741 9.23933C84.4196 9.23933 83.8049 9.4962 83.2944 10.0192L83.2939 10.0196C82.795 10.5442 82.5467 11.1953 82.5467 12.0075C82.5467 12.8217 82.7949 13.4707 83.2939 13.9953L83.2944 13.9958C83.805 14.5189 84.4198 14.7775 85.1741 14.7775V14.7776Z" fill="#022652"/>
<path d="M24.7041 23.3459L12.0072 36.9275C12.0077 36.9303 12.0086 36.9326 12.0091 36.9355C12.3985 38.4101 13.735 39.4961 15.3213 39.4961C15.9554 39.4961 16.5507 39.3233 17.0613 39.02L17.1018 38.9961L31.3939 30.6846L24.7041 23.3459Z" fill="#EA4335"/>
<path d="M37.5499 21.0316L37.5378 21.0232L31.3675 17.4183L24.416 23.6524L31.3917 30.6816L37.5294 27.1126C38.6055 26.5271 39.3359 25.3839 39.3359 24.0655C39.3359 22.7566 38.6153 21.619 37.5499 21.0316Z" fill="#FBBC04"/>
<path d="M12.0067 11.1505C11.9304 11.4341 11.8903 11.7312 11.8903 12.0398V36.039C11.8903 36.347 11.9299 36.6451 12.0072 36.9277L25.1411 23.6936L12.0067 11.1505Z" fill="#4285F4"/>
<path d="M24.7981 24.0391L31.37 17.4177L17.0942 9.07625C16.5753 8.76303 15.9697 8.58226 15.3217 8.58226C13.7354 8.58226 12.3971 9.67011 12.0076 11.1467C12.0071 11.1481 12.0071 11.1491 12.0071 11.1504L24.7981 24.0391Z" fill="#34A853"/>
</svg>
